<?xml version="1.0" encoding="utf-8"?><svg xmlns="http://www.w3.org/2000/svg" xmlns:xlink="http://www.w3.org/1999/xlink"><symbol fill="none" stroke="currentColor" stroke-width="2" stroke-linecap="round" stroke-linejoin="round" class="afeather afeather-activity" viewBox="0 0 24 24" id="activity" xmlns="http://www.w3.org/2000/svg"><path d="M22 12h-4l-3 9L9 3l-3 9H2"/></symbol><symbol fill="none" stroke="currentColor" stroke-width="2" stroke-linecap="round" stroke-linejoin="round" class="bfeather bfeather-alert-triangle" viewBox="0 0 24 24" id="alert-triangle" xmlns="http://www.w3.org/2000/svg"><path d="M10.29 3.86L1.82 18a2 2 0 001.71 3h16.94a2 2 0 001.71-3L13.71 3.86a2 2 0 00-3.42 0zM12 9v4M12 17h.01"/></symbol><symbol fill="none" stroke="currentColor" stroke-width="2" stroke-linecap="round" stroke-linejoin="round" class="cfeather cfeather-award" viewBox="0 0 24 24" id="award" xmlns="http://www.w3.org/2000/svg"><circle cx="12" cy="8" r="7"/><path d="M8.21 13.89L7 23l5-3 5 3-1.21-9.12"/></symbol><symbol fill="none" stroke="currentColor" stroke-width="2" stroke-linecap="round" stroke-linejoin="round" class="dfeather dfeather-bookmark" viewBox="0 0 24 24" id="bookmark" xmlns="http://www.w3.org/2000/svg"><path d="M19 21l-7-5-7 5V5a2 2 0 012-2h10a2 2 0 012 2z"/></symbol><symbol fill="none" stroke="currentColor" stroke-width="2" stroke-linecap="round" stroke-linejoin="round" class="efeather efeather-calendar" viewBox="0 0 24 24" id="calendar" xmlns="http://www.w3.org/2000/svg"><rect x="3" y="4" width="18" height="18" rx="2" ry="2"/><path d="M16 2v4M8 2v4M3 10h18"/></symbol><symbol fill="none" stroke="currentColor" stroke-width="2" stroke-linecap="round" stroke-linejoin="round" class="ffeather ffeather-clock" viewBox="0 0 24 24" id="clock" xmlns="http://www.w3.org/2000/svg"><circle cx="12" cy="12" r="10"/><path d="M12 6v6l4 2"/></symbol><symbol fill="none" stroke="currentColor" stroke-width="2" stroke-linecap="round" stroke-linejoin="round" class="gfeather gfeather-coffee" viewBox="0 0 24 24" id="coffee" xmlns="http://www.w3.org/2000/svg"><path d="M18 8h1a4 4 0 010 8h-1M2 8h16v9a4 4 0 01-4 4H6a4 4 0 01-4-4V8zM6 1v3M10 1v3M14 1v3"/></symbol><symbol fill="none" stroke="currentColor" stroke-width="2" stroke-linecap="round" stroke-linejoin="round" class="hfeather hfeather-copy" viewBox="0 0 24 24" id="copy" xmlns="http://www.w3.org/2000/svg"><rect x="9" y="9" width="13" height="13" rx="2" ry="2"/><path d="M5 15H4a2 2 0 01-2-2V4a2 2 0 012-2h9a2 2 0 012 2v1"/></symbol><symbol fill="none" stroke="currentColor" stroke-width="2" stroke-linecap="round" stroke-linejoin="round" class="ifeather ifeather-filter" viewBox="0 0 24 24" id="filter" xmlns="http://www.w3.org/2000/svg"><path d="M22 3H2l8 9.46V19l4 2v-8.54L22 3z"/></symbol><symbol fill="none" stroke="currentColor" stroke-width="2" stroke-linecap="round" stroke-linejoin="round" class="jfeather jfeather-music" viewBox="0 0 24 24" id="music" xmlns="http://www.w3.org/2000/svg"><path d="M9 18V5l12-2v13"/><circle cx="6" cy="18" r="3"/><circle cx="18" cy="16" r="3"/></symbol><symbol fill="none" stroke="currentColor" stroke-width="2" stroke-linecap="round" stroke-linejoin="round" class="kfeather kfeather-phone" viewBox="0 0 24 24" id="phone" xmlns="http://www.w3.org/2000/svg"><path d="M22 16.92v3a2 2 0 01-2.18 2 19.79 19.79 0 01-8.63-3.07 19.5 19.5 0 01-6-6 19.79 19.79 0 01-3.07-8.67A2 2 0 014.11 2h3a2 2 0 012 1.72 12.84 12.84 0 00.7 2.81 2 2 0 01-.45 2.11L8.09 9.91a16 16 0 006 6l1.27-1.27a2 2 0 012.11-.45 12.84 12.84 0 002.81.7A2 2 0 0122 16.92z"/></symbol><symbol fill="none" stroke="currentColor" stroke-width="2" stroke-linecap="round" stroke-linejoin="round" class="lfeather lfeather-star" viewBox="0 0 24 24" id="star" xmlns="http://www.w3.org/2000/svg"><path d="M12 2l3.09 6.26L22 9.27l-5 4.87 1.18 6.88L12 17.77l-6.18 3.25L7 14.14 2 9.27l6.91-1.01L12 2z"/></symbol><symbol fill="none" stroke="currentColor" stroke-width="2" stroke-linecap="round" stroke-linejoin="round" class="mfeather mfeather-tag" viewBox="0 0 24 24" id="tag" xmlns="http://www.w3.org/2000/svg"><path d="M20.59 13.41l-7.17 7.17a2 2 0 01-2.83 0L2 12V2h10l8.59 8.59a2 2 0 010 2.82zM7 7h.01"/></symbol><symbol fill="none" stroke="currentColor" stroke-width="2" stroke-linecap="round" stroke-linejoin="round" class="nfeather nfeather-upload" viewBox="0 0 24 24" id="upload" xmlns="http://www.w3.org/2000/svg"><path d="M21 15v4a2 2 0 01-2 2H5a2 2 0 01-2-2v-4M17 8l-5-5-5 5M12 3v12"/></symbol><symbol fill="none" stroke="currentColor" stroke-width="2" stroke-linecap="round" stroke-linejoin="round" class="ofeather ofeather-x-circle" viewBox="0 0 24 24" id="x-circle" xmlns="http://www.w3.org/2000/svg"><circle cx="12" cy="12" r="10"/><path d="M15 9l-6 6M9 9l6 6"/></symbol></svg>
